<?xml version="1.0" encoding="utf-8"?>
<!-- Generator: Adobe Illustrator 20.0.0, SVG Export Plug-In . SVG Version: 6.00 Build 0)  -->
<svg version="1.1" id="Capa_1" xmlns="http://www.w3.org/2000/svg" xmlns:xlink="http://www.w3.org/1999/xlink" x="0px" y="0px"
	 viewBox="0 0 206.5 48.4" style="enable-background:new 0 0 206.5 48.4;" xml:space="preserve">
<style type="text/css">
	.st0{fill:none;}
	.st1{fill:#004A73;}
	.st2{fill:#4077A2;}
	.st3{fill:#0089CF;}
	.st4{fill:#00B9F2;}
</style>
<g>
	<g>
		<path class="st0" d="M34.1,16.9c-3-2.7-8.4-7.3-12-9.6C16.6,11.5,7.6,18.8,3.9,23.4c-0.2,0.2-0.4,0.5-0.6,0.9c0,0,0-0.1,0.1-0.1
			c0.7,2.2,4.9,6.5,6.6,8c3,2.7,8.4,7.3,12,9.6c5.4-4.2,14.5-11.4,18.2-16.1c0.2-0.2,0.4-0.5,0.6-0.9c0,0,0,0.1-0.1,0.1
			C40,22.7,35.8,18.6,34.1,16.9z"/>
		<path class="st1" d="M1.5,28.9C1.5,28.9,1.5,29,1.5,28.9c0.8,3.7,8.2,9.9,16.2,16.1c0,0,1.7-1.3,4.3-3.2c-3.6-2.3-9.1-6.9-12-9.6
			c-1.6-1.5-5.9-5.7-6.6-8c0,0,0,0.1-0.1,0.1C2.5,25.6,1.7,27.6,1.5,28.9z"/>
		<path class="st2" d="M22.1,7.3c2.5-1.9,4.3-3.2,4.3-3.2c-1.5-1.2-2.8-2.1-4.3-3C18.1,4.1,5.9,14,2.6,17.7c-1.2,1.4-1.2,3.3-1.2,5
			c0,2.7,0,5,0,6.2c0,0,0,0,0-0.1c0.3-1.4,1.1-3.3,1.8-4.6c0,0,0-0.1,0.1-0.1c0.2-0.3,0.4-0.6,0.5-0.8C7.6,18.8,16.6,11.5,22.1,7.3z
			"/>
		<path class="st0" d="M42.7,20.2L42.7,20.2c-0.1,0.4-0.3,1-0.5,1.5C42.4,21.3,42.6,20.7,42.7,20.2z"/>
		<path class="st3" d="M42.2,21.8c0.2-0.6,0.4-1.2,0.5-1.6c-0.8-3.7-8.2-9.8-16.2-16c0,0-1.7,1.3-4.3,3.2c3.6,2.3,9.1,6.9,12,9.6
			c1.6,1.5,5.9,5.7,6.6,8c0,0,0-0.1,0.1-0.1C41.3,24,41.8,22.8,42.2,21.8z"/>
		<path class="st4" d="M42.7,20.2L42.7,20.2c-0.1,0.6-0.3,1.1-0.5,1.6c-0.4,1.1-0.9,2.2-1.5,3.1c0,0,0,0.1-0.1,0.1
			c-0.2,0.3-0.4,0.6-0.5,0.8c-3.7,4.5-12.8,11.8-18.2,16c-2.5,1.9-4.3,3.2-4.3,3.2c1.5,1.2,2.8,2.1,4.3,3
			c4.1-2.9,16.2-12.9,19.4-16.5c1.2-1.5,1.2-3.4,1.2-5.1C42.7,23.7,42.7,21.4,42.7,20.2z"/>
	</g>
	<g>
		<g>
			<path class="st2" d="M79.2,19.1c-2.6-2.8-6-4.1-10.7-4.1c-7.1,0-11.8,4-11.8,9.5c0,5.7,4.6,9.6,12.1,9.6c4.6,0,7.9-1.3,10.5-4.1
				l3.5,1.9c-3.6,4.3-8.1,6-14.4,6c-4.3,0-8.3-1.3-11.1-3.3c-3.4-2.5-5-5.9-5-10c0-4,1.7-7.4,5.1-9.9c2.7-2.2,6.7-3.4,11.1-3.4
				c6.2,0,11.2,2.3,14.5,6.5L79.2,19.1z"/>
			<path class="st2" d="M85,37.1V11.9h25.4v3.8H89.1v6.5h14.8v3.8H89.1v7.4h22.2v3.8H85z"/>
			<path class="st2" d="M143.8,30.5c0,4.3-3.2,6.6-9.6,6.6h-20.1V11.9h20.4c5.2,0,8.2,2.7,8.2,6.8c0,2.4-1,4-3.3,5.4
				C142.3,25.1,143.8,27.3,143.8,30.5z M138.7,19.1c0-2.1-1.5-3.3-3.9-3.3h-16.4v6.7h16.3C137,22.5,138.7,20.9,138.7,19.1z
				 M139.5,29.9c0-2.5-1.5-3.6-4.6-3.6h-16.6v7.1h15.9C137.9,33.3,139.5,32.3,139.5,29.9z"/>
			<path class="st2" d="M170.8,37.1l-3-5.6h-17l-3,5.6h-4.6l13.3-25.2h5.2l13.4,25.2H170.8z M159.4,15.6l-6.5,12.2h12.9L159.4,15.6z
				"/>
			<path class="st2" d="M200.3,19.1c-2.6-2.8-6-4.1-10.7-4.1c-7.1,0-11.8,4-11.8,9.5c0,5.7,4.6,9.6,12.1,9.6c4.6,0,7.9-1.3,10.5-4.1
				l3.5,1.9c-3.6,4.3-8.1,6-14.4,6c-4.3,0-8.3-1.3-11.1-3.3c-3.4-2.5-5-5.9-5-10c0-4,1.7-7.4,5.1-9.9c2.7-2.2,6.7-3.4,11.1-3.4
				c6.2,0,11.2,2.3,14.5,6.5L200.3,19.1z"/>
		</g>
	</g>
</g>
</svg>
