<?xml version="1.0" encoding="utf-8"?>
<!-- Generator: Adobe Illustrator 20.0.0, SVG Export Plug-In . SVG Version: 6.00 Build 0)  -->
<svg version="1.1" id="Capa_1" xmlns="http://www.w3.org/2000/svg" xmlns:xlink="http://www.w3.org/1999/xlink" x="0px" y="0px"
	 viewBox="0 0 133.2 101.2" style="enable-background:new 0 0 133.2 101.2;" xml:space="preserve">
<style type="text/css">
	.st0{fill:none;}
	.st1{fill:#004A73;}
	.st2{fill:#4077A2;}
	.st3{fill:#0089CF;}
	.st4{fill:#00B9F2;}
</style>
<g>
	<path class="st0" d="M81.5,19C77.9,15.7,71.4,10.3,67,7.5c-6.5,5-17.4,13.7-21.9,19.3c-0.2,0.3-0.5,0.6-0.7,1c0,0,0-0.1,0.1-0.1
		c0.8,2.7,5.9,7.7,7.9,9.6C56,40.6,62.6,46,66.9,48.8c6.5-5,17.4-13.7,21.9-19.3c0.2-0.3,0.5-0.6,0.7-1c0,0,0,0.1-0.1,0.1
		C88.6,25.9,83.5,20.9,81.5,19z"/>
	<path class="st1" d="M42.3,33.4C42.2,33.4,42.2,33.4,42.3,33.4c0.9,4.4,9.8,11.8,19.5,19.3c0,0,2.1-1.5,5.1-3.9
		C62.6,46,56,40.6,52.5,37.3c-2-1.9-7.1-6.9-7.9-9.6c0,0,0,0.1-0.1,0.1C43.5,29.4,42.6,31.7,42.3,33.4z"/>
	<path class="st2" d="M67,7.5c3-2.3,5.1-3.9,5.1-3.9c-1.8-1.4-3.3-2.5-5.1-3.6c-4.9,3.5-19.5,15.5-23.4,19.8c-1.4,1.7-1.4,4-1.4,6.1
		c0,3.3,0,6,0,7.5c0,0,0-0.1,0-0.1c0.3-1.7,1.3-4,2.2-5.6c0,0,0-0.1,0.1-0.1c0.2-0.3,0.4-0.7,0.6-0.9C49.6,21.2,60.5,12.5,67,7.5z"
		/>
	<path class="st0" d="M91.7,22.9C91.7,22.9,91.7,22.9,91.7,22.9c-0.1,0.5-0.3,1.2-0.5,1.9C91.4,24.1,91.6,23.5,91.7,22.9z"/>
	<path class="st3" d="M91.2,24.8c0.2-0.7,0.4-1.4,0.5-1.9c-0.9-4.4-9.8-11.8-19.5-19.2c0,0-2.1,1.5-5.1,3.9
		c4.3,2.8,10.9,8.3,14.5,11.6c2,1.9,7.1,6.9,7.9,9.6c0,0,0-0.1,0.1-0.1C90.1,27.5,90.7,26.1,91.2,24.8z"/>
	<path class="st4" d="M91.7,22.8C91.7,22.9,91.7,22.9,91.7,22.8c-0.1,0.6-0.3,1.3-0.5,1.9c-0.4,1.3-1.1,2.7-1.7,3.7
		c0,0,0,0.1-0.1,0.1c-0.2,0.3-0.4,0.6-0.6,0.9c-4.4,5.6-15.4,14.3-21.9,19.3c-3,2.3-5.1,3.9-5.1,3.9c1.8,1.4,3.3,2.5,5.1,3.6
		c4.9-3.5,19.5-15.5,23.4-19.8c1.4-1.7,1.4-4,1.4-6.1C91.7,27.1,91.7,24.3,91.7,22.8z"/>
	<g>
		<path class="st2" d="M23.6,70.1c-2.3-2.5-5.3-3.6-9.4-3.6c-6.2,0-10.4,3.5-10.4,8.3c0,5,4,8.4,10.6,8.4c4,0,6.9-1.1,9.2-3.6
			l3.1,1.7c-3.2,3.8-7.1,5.3-12.6,5.3c-3.8,0-7.3-1.1-9.7-2.9c-3-2.2-4.4-5.2-4.4-8.8c0-3.5,1.5-6.5,4.5-8.7c2.4-1.9,5.9-3,9.7-3
			c5.4,0,9.8,2,12.7,5.7L23.6,70.1z"/>
		<path class="st2" d="M28.6,86V63.9h22.3v3.3H32.3v5.7h13v3.3h-13v6.5h19.5V86H28.6z"/>
		<path class="st2" d="M80.2,80.2c0,3.8-2.8,5.8-8.4,5.8H54.2V63.9h17.9c4.6,0,7.2,2.4,7.2,6c0,2.1-0.9,3.5-2.9,4.7
			C79,75.5,80.2,77.3,80.2,80.2z M75.7,70.1c0-1.8-1.3-2.9-3.4-2.9H57.9v5.9h14.3C74.2,73.1,75.7,71.8,75.7,70.1z M76.5,79.7
			c0-2.2-1.3-3.2-4-3.2H57.9v6.2h14C75,82.7,76.5,81.8,76.5,79.7z"/>
		<path class="st2" d="M103.9,86l-2.6-4.9H86.5L83.9,86h-4l11.7-22.1h4.6L107.9,86H103.9z M94,67l-5.7,10.7h11.3L94,67z"/>
		<path class="st2" d="M129.8,70.1c-2.3-2.5-5.3-3.6-9.4-3.6c-6.2,0-10.4,3.5-10.4,8.3c0,5,4,8.4,10.6,8.4c4,0,6.9-1.1,9.2-3.6
			l3.1,1.7c-3.2,3.8-7.1,5.3-12.6,5.3c-3.8,0-7.3-1.1-9.7-2.9c-3-2.2-4.4-5.2-4.4-8.8c0-3.5,1.5-6.5,4.5-8.7c2.4-1.9,5.9-3,9.7-3
			c5.4,0,9.8,2,12.7,5.7L129.8,70.1z"/>
	</g>
	<g>
		<path class="st4" d="M33.7,101h-4.9c-0.1,0-0.1,0-0.1-0.1v-9c0-0.1,0-0.1,0.1-0.1h0.9c0.1,0,0.1,0,0.1,0.1v8c0,0.1,0,0.1,0.1,0.1
			h3.8c0.1,0,0.1,0,0.1,0.1v0.7C33.8,101,33.8,101,33.7,101z"/>
		<path class="st4" d="M40.9,101H40c-0.1,0-0.1,0-0.1-0.1l-0.6-2c0-0.1-0.1-0.1-0.1-0.1h-2.7c-0.1,0-0.1,0-0.1,0.1l-0.6,2
			c0,0.1-0.1,0.1-0.1,0.1h-0.9c-0.1,0-0.2-0.1-0.1-0.2l2.8-9c0-0.1,0.1-0.1,0.1-0.1h0.7c0.1,0,0.1,0,0.1,0.1l2.7,9
			C41.1,100.9,41,101,40.9,101z M38,94.3c-0.1-0.5-0.2-1.1-0.2-1.1h0c0,0-0.1,0.5-0.2,1.1l-0.9,3.3c0,0.1,0,0.2,0.1,0.2h1.9
			c0.1,0,0.2-0.1,0.1-0.2L38,94.3z"/>
		<path class="st4" d="M45.5,101h-2.9c-0.1,0-0.1,0-0.1-0.1v-9c0-0.1,0-0.1,0.1-0.1h2.9c1.6,0,2.6,1,2.6,2.6v0.1
			c0,0.6-0.5,1.4-1,1.7c-0.1,0.1-0.1,0.2,0,0.3c0.5,0.3,1,1.1,1,1.8v0.2C48.1,100,47.1,101,45.5,101z M47,94.2
			c0-0.8-0.7-1.5-1.5-1.5h-1.8c-0.1,0-0.1,0-0.1,0.1v2.8c0,0.1,0,0.1,0.1,0.1h1.8c0.8,0,1.5-0.7,1.5-1.5V94.2z M47,98.2
			c0-0.8-0.7-1.4-1.5-1.4h-1.8c-0.1,0-0.1,0-0.1,0.1v2.9c0,0.1,0,0.1,0.1,0.1h1.8c0.8,0,1.5-0.6,1.5-1.5V98.2z"/>
		<path class="st4" d="M53,101.2h-0.5c-1.6,0-2.6-1-2.6-2.5V94c0-1.4,1-2.5,2.6-2.5H53c1.6,0,2.6,1,2.6,2.5v4.7
			C55.6,100.1,54.6,101.2,53,101.2z M54.5,94c0-0.8-0.7-1.4-1.4-1.4h-0.5c-0.8,0-1.5,0.6-1.5,1.4v4.7c0,0.8,0.6,1.5,1.5,1.5H53
			c0.8,0,1.4-0.7,1.4-1.5V94z"/>
		<path class="st4" d="M63.4,101h-1c-0.1,0-0.1,0-0.1-0.1l-1.4-4c0-0.1-0.1-0.1-0.1-0.1h-1.7c-0.1,0-0.1,0-0.1,0.1v3.9
			c0,0.1,0,0.1-0.1,0.1H58c-0.1,0-0.1,0-0.1-0.1v-9c0-0.1,0-0.1,0.1-0.1h2.9c1.6,0,2.6,1,2.6,2.6v0.1c0,0.8-0.7,1.7-1.3,2
			c-0.1,0-0.1,0.1-0.1,0.2l1.5,4.2C63.6,100.9,63.5,101,63.4,101z M62.3,94.2c0-0.8-0.7-1.5-1.5-1.5h-1.8c-0.1,0-0.1,0-0.1,0.1v2.8
			c0,0.1,0,0.1,0.1,0.1h1.8c0.8,0,1.5-0.7,1.5-1.5V94.2z"/>
		<path class="st4" d="M70.7,101h-0.9c-0.1,0-0.1,0-0.1-0.1l-0.6-2c0-0.1-0.1-0.1-0.1-0.1h-2.7c-0.1,0-0.1,0-0.1,0.1l-0.6,2
			c0,0.1-0.1,0.1-0.1,0.1h-0.9c-0.1,0-0.2-0.1-0.1-0.2l2.8-9c0-0.1,0.1-0.1,0.1-0.1H68c0.1,0,0.1,0,0.1,0.1l2.7,9
			C70.9,100.9,70.9,101,70.7,101z M67.9,94.3c-0.1-0.5-0.2-1.1-0.2-1.1h0c0,0-0.1,0.5-0.2,1.1l-0.9,3.3c0,0.1,0,0.2,0.1,0.2h1.9
			c0.1,0,0.2-0.1,0.1-0.2L67.9,94.3z"/>
		<path class="st4" d="M75.8,92.7h-1.7c-0.1,0-0.1,0-0.1,0.1v8c0,0.1,0,0.1-0.1,0.1h-0.9c-0.1,0-0.1,0-0.1-0.1v-8
			c0-0.1,0-0.1-0.1-0.1h-1.7c-0.1,0-0.1,0-0.1-0.1v-0.7c0-0.1,0-0.1,0.1-0.1h5c0.1,0,0.1,0,0.1,0.1v0.7C76,92.7,75.9,92.7,75.8,92.7
			z"/>
		<path class="st4" d="M79.8,101.2h-0.5c-1.6,0-2.6-1-2.6-2.5V94c0-1.4,1-2.5,2.6-2.5h0.5c1.6,0,2.6,1,2.6,2.5v4.7
			C82.4,100.1,81.4,101.2,79.8,101.2z M81.3,94c0-0.8-0.7-1.4-1.4-1.4h-0.5c-0.8,0-1.5,0.6-1.5,1.4v4.7c0,0.8,0.6,1.5,1.5,1.5h0.5
			c0.8,0,1.4-0.7,1.4-1.5V94z"/>
		<path class="st4" d="M90.2,101h-1c-0.1,0-0.1,0-0.1-0.1l-1.4-4c0-0.1-0.1-0.1-0.1-0.1h-1.7c-0.1,0-0.1,0-0.1,0.1v3.9
			c0,0.1,0,0.1-0.1,0.1h-0.9c-0.1,0-0.1,0-0.1-0.1v-9c0-0.1,0-0.1,0.1-0.1h2.9c1.6,0,2.6,1,2.6,2.6v0.1c0,0.8-0.7,1.7-1.3,2
			c-0.1,0-0.1,0.1-0.1,0.2l1.5,4.2C90.4,100.9,90.3,101,90.2,101z M89.1,94.2c0-0.8-0.7-1.5-1.5-1.5h-1.8c-0.1,0-0.1,0-0.1,0.1v2.8
			c0,0.1,0,0.1,0.1,0.1h1.8c0.8,0,1.5-0.7,1.5-1.5V94.2z"/>
		<path class="st4" d="M93.2,101h-0.9c-0.1,0-0.1,0-0.1-0.1v-9c0-0.1,0-0.1,0.1-0.1h0.9c0.1,0,0.1,0,0.1,0.1v9
			C93.3,101,93.3,101,93.2,101z"/>
		<path class="st4" d="M98.6,101.2h-0.5c-1.6,0-2.6-1-2.6-2.5V94c0-1.4,1-2.5,2.6-2.5h0.5c1.6,0,2.6,1,2.6,2.5v4.7
			C101.2,100.1,100.2,101.2,98.6,101.2z M100.1,94c0-0.8-0.7-1.4-1.4-1.4h-0.5c-0.8,0-1.5,0.6-1.5,1.4v4.7c0,0.8,0.6,1.5,1.5,1.5
			h0.5c0.8,0,1.4-0.7,1.4-1.5V94z"/>
		<path class="st4" d="M106,101.2h-0.6c-0.8,0-1.3-0.2-1.7-0.5c-0.3-0.2-0.5-0.5-0.7-0.8c0-0.1,0-0.2,0.1-0.2l0.8-0.4
			c0.1,0,0.2,0,0.2,0.1c0.3,0.5,0.8,0.8,1.3,0.8h0.6c0.8,0,1.5-0.6,1.5-1.5c0-1-0.9-1.4-1.9-1.9c-1.1-0.5-2.4-1.1-2.4-2.8
			c0-1.4,1.1-2.5,2.6-2.5h0.2c0.9,0,1.5,0.3,1.9,0.7c0.2,0.2,0.4,0.4,0.5,0.7c0,0.1,0,0.2-0.1,0.2l-0.8,0.4c-0.1,0-0.1,0-0.2-0.1
			c-0.3-0.5-0.8-0.8-1.3-0.8h-0.2c-0.9,0-1.4,0.6-1.4,1.4c0,0.9,1,1.3,2,1.8c1.1,0.5,2.3,1.2,2.3,2.9
			C108.6,100.1,107.6,101.2,106,101.2z"/>
	</g>
</g>
</svg>
